<svg width="1254" height="1254" version="1.1" xmlns="http://www.w3.org/2000/svg" desc="Created with imagetracer.js version 1.2.6" ><path fill="rgb(18,19,19)" stroke="rgb(18,19,19)" stroke-width="1" opacity="1" d="M 604.5 79 L 653.5 79 L 654.5 80 L 670.5 80 L 671.5 81 L 681.5 81 L 682.5 82 L 690.5 82 L 691.5 83 L 698.5 83 L 699.5 84 L 712.5 85 L 713.5 86 L 718.5 86 L 719.5 87 L 730.5 88 L 731.5 89 L 735.5 89 L 740.5 91 L 744.5 91 L 745.5 92 L 749.5 92 L 750.5 93 L 765.5 96 L 769.5 98 L 772.5 98 L 783.5 102 L 786.5 102 L 810.5 110 L 813.5 112 L 818.5 113 L 840.5 123 L 842.5 123 L 869.5 136 L 871.5 138 L 882.5 143 L 916.5 164 L 954.5 193 L 998 233.5 L 1037 278.5 L 1070 325.5 L 1078 340.5 L 1080 342.5 L 1083 349.5 L 1085 351.5 L 1100 381.5 L 1100 383.5 L 1103 388.5 L 1103 390.5 L 1106 395.5 L 1106 397.5 L 1112 410.5 L 1113 415.5 L 1115 418.5 L 1117 426.5 L 1119 429.5 L 1125 447.5 L 1125 450.5 L 1129 460.5 L 1129 463.5 L 1135 481.5 L 1135 484.5 L 1136 485.5 L 1136 488.5 L 1139 497.5 L 1139 501.5 L 1141 506.5 L 1141 510.5 L 1142 511.5 L 1144 525.5 L 1145 526.5 L 1145 532.5 L 1146 533.5 L 1147 545.5 L 1148 546.5 L 1148 553.5 L 1149 554.5 L 1149 562.5 L 1150 563.5 L 1151 589.5 L 1152 590.5 L 1152 641.5 L 1151 642.5 L 1151 656.5 L 1150 657.5 L 1150 667.5 L 1149 668.5 L 1149 676.5 L 1148 677.5 L 1147 692.5 L 1146 693.5 L 1146 698.5 L 1145 699.5 L 1145 704.5 L 1143 710.5 L 1143 715.5 L 1142 716.5 L 1142 720.5 L 1141 721.5 L 1141 725.5 L 1140 726.5 L 1140 730.5 L 1138 735.5 L 1138 739.5 L 1137 740.5 L 1136 747.5 L 1134 751.5 L 1134 754.5 L 1129 769.5 L 1129 772.5 L 1123 788.5 L 1123 791.5 L 1121 794.5 L 1114 815.5 L 1111 820.5 L 1111 822.5 L 1108 827.5 L 1105 836.5 L 1099 847.5 L 1099 849.5 L 1080 885.5 L 1070 900.5 L 1066 908.5 L 1049 933.5 L 1016 974.5 L 979.5 1012 L 945.5 1041 L 898.5 1074 L 878.5 1085 L 876.5 1087 L 851.5 1100 L 849.5 1100 L 836.5 1107 L 834.5 1107 L 829.5 1110 L 827.5 1110 L 804.5 1120 L 777.5 1129 L 774.5 1129 L 763.5 1133 L 752.5 1135 L 748.5 1137 L 744.5 1137 L 735.5 1140 L 731.5 1140 L 730.5 1141 L 726.5 1141 L 725.5 1142 L 721.5 1142 L 715.5 1144 L 697.5 1146 L 696.5 1147 L 688.5 1147 L 687.5 1148 L 680.5 1148 L 679.5 1149 L 669.5 1149 L 668.5 1150 L 655.5 1150 L 654.5 1151 L 598.5 1151 L 597.5 1150 L 585.5 1150 L 584.5 1149 L 575.5 1149 L 574.5 1148 L 567.5 1148 L 566.5 1147 L 560.5 1147 L 559.5 1146 L 552.5 1146 L 551.5 1145 L 546.5 1145 L 540.5 1143 L 535.5 1143 L 534.5 1142 L 525.5 1141 L 516.5 1138 L 512.5 1138 L 511.5 1137 L 500.5 1135 L 496.5 1133 L 486.5 1131 L 456.5 1121 L 453.5 1119 L 448.5 1118 L 433.5 1111 L 431.5 1111 L 426.5 1108 L 424.5 1108 L 415.5 1103 L 413.5 1103 L 391.5 1092 L 389.5 1090 L 363.5 1076 L 320.5 1047 L 275.5 1010 L 240 974.5 L 221 952.5 L 198 922.5 L 175 887.5 L 153 846.5 L 153 844.5 L 148 835.5 L 148 833.5 L 145 828.5 L 145 826.5 L 142 821.5 L 137 806.5 L 135 803.5 L 132 792.5 L 128 783.5 L 128 780.5 L 125 773.5 L 125 770.5 L 122 763.5 L 121 756.5 L 119 752.5 L 119 749.5 L 118 748.5 L 118 745.5 L 115 736.5 L 115 732.5 L 113 727.5 L 111 713.5 L 110 712.5 L 110 707.5 L 108 701.5 L 108 696.5 L 107 695.5 L 107 689.5 L 106 688.5 L 106 682.5 L 105 681.5 L 105 673.5 L 104 672.5 L 104 664.5 L 103 663.5 L 103 651.5 L 102 650.5 L 102 631.5 L 101 630.5 L 101 593.5 L 102 592.5 L 102 576.5 L 103 575.5 L 103 565.5 L 104 564.5 L 105 547.5 L 106 546.5 L 107 533.5 L 108 532.5 L 108 527.5 L 109 526.5 L 110 515.5 L 111 514.5 L 111 510.5 L 112 509.5 L 113 501.5 L 115 496.5 L 115 492.5 L 119 480.5 L 119 477.5 L 123 465.5 L 123 462.5 L 128 449.5 L 128 446.5 L 132 434.5 L 134 431.5 L 135 426.5 L 137 423.5 L 138 418.5 L 143 408.5 L 144 403.5 L 147 398.5 L 147 396.5 L 163 363.5 L 165 361.5 L 176 340.5 L 188 322.5 L 189 319.5 L 205 296.5 L 238 255.5 L 277.5 215 L 314.5 184 L 348.5 160 L 373.5 145 L 378.5 143 L 380.5 141 L 429.5 118 L 431.5 118 L 444.5 112 L 452.5 110 L 455.5 108 L 470.5 103 L 473.5 103 L 480.5 100 L 483.5 100 L 487.5 98 L 490.5 98 L 491.5 97 L 494.5 97 L 495.5 96 L 498.5 96 L 499.5 95 L 502.5 95 L 503.5 94 L 506.5 94 L 515.5 91 L 519.5 91 L 520.5 90 L 524.5 90 L 525.5 89 L 529.5 89 L 530.5 88 L 534.5 88 L 540.5 86 L 545.5 86 L 546.5 85 L 559.5 84 L 560.5 83 L 576.5 82 L 577.5 81 L 587.5 81 L 588.5 80 L 603.5 80 L 604.5 79 Z M 612 86 L 611 87 L 592 87 L 591 88 L 579 88 L 578 89 L 569 89 L 568 90 L 561 90 L 560 91 L 548 92 L 542 94 L 537 94 L 531 96 L 527 96 L 526 97 L 522 97 L 517 99 L 513 99 L 504 102 L 500 102 L 495 104 L 492 104 L 485 107 L 482 107 L 469 112 L 466 112 L 460 114 L 457 116 L 449 118 L 446 120 L 431 125 L 381 149 L 351 167 L 316 192 L 284 219 L 244 260 L 214 297 L 186 338 L 172 364 L 170 366 L 158 390 L 158 392 L 152 403 L 152 405 L 149 410 L 145 422 L 143 425 L 142 430 L 140 433 L 131 460 L 131 463 L 127 474 L 124 489 L 123 490 L 123 493 L 122 494 L 122 497 L 121 498 L 121 501 L 120 502 L 119 511 L 117 517 L 117 521 L 116 522 L 116 527 L 115 528 L 115 533 L 114 534 L 113 547 L 112 548 L 111 565 L 110 566 L 110 577 L 109 578 L 109 594 L 108 595 L 108 637 L 109 638 L 109 653 L 110 654 L 110 664 L 111 665 L 111 674 L 112 675 L 112 682 L 113 683 L 114 697 L 115 698 L 115 703 L 117 709 L 117 713 L 118 714 L 119 724 L 121 729 L 121 733 L 124 742 L 124 745 L 125 746 L 125 749 L 126 750 L 126 753 L 127 754 L 127 757 L 129 761 L 131 771 L 139 795 L 141 798 L 143 806 L 149 819 L 149 821 L 152 826 L 152 828 L 156 835 L 156 837 L 172 869 L 190 899 L 217 937 L 243 968 L 259 984 L 259 985 L 261 985 Q 278 1004 298 1020 L 337 1050 L 361 1066 L 381 1078 L 386 1080 L 388 1082 L 433 1104 L 445 1108 L 448 1110 L 450 1110 L 453 1112 L 455 1112 L 458 1114 L 488 1124 L 491 1124 L 502 1128 L 517 1131 L 518 1132 L 521 1132 L 522 1133 L 526 1133 L 531 1135 L 541 1136 L 547 1138 L 552 1138 L 553 1139 L 558 1139 L 559 1140 L 574 1141 L 575 1142 L 584 1142 L 585 1143 L 597 1143 L 598 1144 L 623 1144 L 624 1145 Q 627 1146 629 1144 L 659 1144 L 660 1143 L 672 1143 L 673 1142 L 692 1141 L 693 1140 L 699 1140 L 700 1139 L 706 1139 Q 707 1137 712 1138 L 713 1137 L 718 1137 L 719 1136 L 733 1134 L 738 1132 L 742 1132 L 747 1130 L 750 1130 L 758 1127 L 761 1127 L 762 1126 L 765 1126 L 813 1110 L 826 1104 L 828 1104 L 837 1099 L 839 1099 L 869 1084 L 871 1082 L 878 1079 L 898 1067 L 942 1036 L 973 1010 L 1007 976 Q 1028 953 1046 928 L 1071 890 L 1096 843 L 1096 841 L 1105 823 L 1105 821 L 1110 811 L 1111 806 L 1113 803 L 1113 801 L 1115 798 L 1125 768 L 1126 761 L 1128 757 L 1131 742 L 1132 741 L 1132 738 L 1133 737 L 1133 733 L 1135 728 L 1137 714 L 1138 713 L 1139 702 L 1140 701 L 1141 688 L 1142 687 L 1142 679 L 1143 678 L 1143 671 L 1144 670 L 1145 646 L 1146 645 L 1146 591 L 1145 590 L 1145 576 L 1144 575 L 1144 564 L 1143 563 L 1143 555 L 1142 554 L 1141 540 L 1140 539 L 1139 528 L 1137 522 L 1137 518 L 1136 517 L 1136 513 L 1135 512 L 1135 508 L 1134 507 L 1134 503 L 1131 494 L 1131 491 L 1130 490 L 1130 487 L 1129 486 L 1129 483 L 1127 479 L 1126 472 L 1122 462 L 1122 459 L 1113 432 L 1111 429 L 1109 421 L 1101 403 L 1101 401 L 1095 389 L 1095 387 L 1082 361 L 1076 352 L 1069 338 L 1047 304 L 1038 293 L 1036 289 L 1006 253 Q 970 213 927 181 L 902 164 L 882 152 L 843 132 L 841 132 L 827 125 L 825 125 L 814 120 L 806 118 L 803 116 L 785 110 L 782 110 L 778 108 L 775 108 L 771 106 L 768 106 L 764 104 L 753 102 L 752 101 L 748 101 L 739 98 L 725 96 L 724 95 L 713 94 L 712 93 L 707 93 L 706 92 L 700 92 L 699 91 L 692 91 L 691 90 L 684 90 L 683 89 L 674 89 L 673 88 L 661 88 L 660 87 L 642 87 L 641 86 L 612 86 Z " /><path fill="rgb(18,19,19)" stroke="rgb(18,19,19)" stroke-width="1" opacity="1" d="M 454.5 176 L 460.5 177 L 464 180.5 L 464 184.5 L 459.5 190 L 454.5 192 L 449.5 192 L 448.5 193 L 439.5 193 L 434 198.5 L 417 223.5 L 404 248.5 L 402 250.5 L 371 313.5 L 371 315.5 L 345 368.5 L 345 370.5 L 319 418.5 L 297 449.5 L 269.5 478 L 253.5 490 L 229.5 502 L 226.5 502 L 218.5 505 L 213.5 505 L 212.5 506 L 194.5 506 L 193.5 505 L 189.5 505 L 183.5 503 L 175.5 499 L 167 491.5 L 162 482.5 L 160 476.5 L 160 473.5 L 159 472.5 L 159 457.5 L 160 456.5 L 161 448.5 L 166 436.5 Q 172.1 426.1 180.5 418 L 191.5 410 L 197.5 407 L 206.5 404 L 210.5 404 L 211.5 403 L 223.5 403 L 223.5 404 L 218.5 404 L 217.5 405 L 208.5 406 L 195.5 412 Q 185.7 417.7 179 426.5 L 174 433.5 L 168 446.5 L 168 449.5 L 166 454.5 L 166 469.5 L 170 481.5 L 178.5 491 L 185.5 495 L 191.5 497 L 202.5 498 L 203.5 497 L 210.5 497 Q 211.3 495.3 214.5 496 L 231.5 489 Q 251.3 476.8 266 459.5 L 281 440.5 L 307 399.5 L 320 374.5 L 322 372.5 L 329 357.5 L 331 355.5 L 331 353.5 L 333 351.5 L 343 330.5 L 345 328.5 L 360 297.5 L 362 295.5 L 374 271.5 L 376 269.5 L 379 262.5 L 381 260.5 L 393 238.5 L 411 211.5 L 425 195.5 L 419.5 195 L 418.5 196 L 406.5 197 L 401.5 199 L 397.5 199 L 396.5 200 L 389.5 201 L 371.5 207 L 363.5 211 L 361.5 211 L 349.5 217 L 330.5 229 L 308 248.5 L 292 268.5 L 282 287.5 L 280 293.5 L 280 296.5 L 279 297.5 L 279 301.5 L 278 302.5 L 278 311.5 L 279 312.5 L 280 318.5 L 284.5 325 L 292.5 329 L 302.5 329 L 313.5 325 L 324.5 316 L 327.5 315 Q 329.8 315.8 329 319.5 L 318.5 328 L 307.5 333 Q 304.3 332.3 303.5 334 L 288.5 334 L 280.5 331 L 272 323.5 L 267 313.5 Q 268 309.5 266 308.5 L 266 296.5 L 267 295.5 L 267 291.5 L 268 290.5 L 268 287.5 L 270 281.5 L 276 269.5 L 285 256.5 L 293 248.5 L 293 247 L 294.5 247 L 309.5 233 L 328.5 220 L 354.5 207 L 356.5 207 L 364.5 203 L 379.5 198 L 390.5 196 L 394.5 194 L 398.5 194 L 404.5 192 L 409.5 192 L 410.5 191 L 415.5 191 L 416.5 190 L 431.5 189 L 442.5 180 L 454.5 176 Z M 453 184 L 453 185 L 455 185 L 453 184 Z M 450 185 L 450 186 L 452 186 L 450 185 Z " /><path fill="rgb(18,19,19)" stroke="rgb(18,19,19)" stroke-width="1" opacity="1" d="M 502.5 281 L 514.5 281 Q 515.5 283 519.5 282 L 528.5 285 L 534 288.5 L 531.5 289 L 530.5 288 L 519.5 288 L 518.5 289 L 511.5 290 L 503.5 294 L 496 300.5 L 491 308.5 L 492.5 309 L 496.5 305 L 512.5 298 Q 515.8 298.7 516.5 297 L 539.5 297 Q 540.3 298.7 543.5 298 L 544.5 297 L 561.5 297 L 562.5 298 L 567.5 298 L 568.5 299 L 571.5 299 L 577.5 301 L 591.5 308 L 599.5 314 L 619.5 334 L 636.5 346 L 652.5 352 L 665.5 353 L 666.5 352 L 670.5 352 L 675.5 350 L 682 344.5 L 684.5 337 Q 686.5 337.5 686 340.5 L 685 341.5 L 685 347.5 L 682 354.5 L 674.5 363 L 669.5 366 L 660 368.5 L 671 377.5 L 676 384.5 L 681 396.5 L 682 405.5 L 683 406.5 L 683 415.5 L 682 416.5 L 682 423.5 L 681 424.5 L 680 430.5 Q 681 432 682 429.5 L 689 421.5 L 689 415.5 L 690 414.5 L 691 407.5 L 696 397.5 L 704.5 388 L 711.5 383 L 721.5 378 L 733.5 374 L 737.5 374 L 743.5 372 L 754.5 372 L 755.5 371 L 770.5 371 L 771.5 372 L 782.5 372 L 783.5 373 L 789.5 373 L 790.5 374 L 800.5 375 L 801.5 376 L 808.5 377 L 829.5 384 L 847.5 393 L 859.5 401 L 882 422.5 L 896 443.5 L 907 470.5 L 907 473.5 L 909 478.5 L 909 482.5 L 910 483.5 L 910 487.5 L 911 488.5 L 911 493.5 L 912 494.5 L 912 502.5 L 913 503.5 L 913 530.5 L 912 531.5 L 912 539.5 L 911 540.5 L 911 545.5 L 910 546.5 L 909 555.5 L 908 556.5 L 907 563.5 L 902 578.5 L 890 604.5 L 881 619.5 L 871 633.5 L 849 659.5 L 808.5 700 L 764 739.5 L 765.5 740 L 816.5 702 L 838.5 684 L 853 670.5 L 866 656.5 L 882 635.5 L 893 617.5 L 901 601.5 L 901 599.5 L 907 586.5 L 911 574.5 L 912 567.5 L 913 566.5 L 913 562.5 L 915 556.5 L 915 551.5 L 916 550.5 L 917.5 523 L 918 528.5 L 919 529.5 L 919 541.5 L 920 542.5 L 920 559.5 L 919 560.5 L 919 572.5 L 918 573.5 L 918 579.5 L 917 580.5 L 917 585.5 L 916 586.5 L 916 590.5 L 914 595.5 L 913 603.5 L 907 621.5 L 903 629.5 L 903 631.5 L 894 650.5 L 892 652.5 L 889 659.5 L 885 664.5 L 881 672.5 L 865 694.5 L 832.5 731 L 829 733.5 L 826.5 737 L 780.5 778 L 749 809.5 L 735.5 828 L 736 826.5 L 747 805.5 L 761 786.5 Q 783.3 759.8 808 735.5 L 835 703.5 L 833.5 703 L 818.5 715 L 793.5 731 L 778.5 742 L 766.5 749 L 763.5 752 L 732.5 773 L 693.5 805 L 675 823.5 L 655 848.5 L 645 864.5 L 637 880.5 L 637 882.5 L 633 890.5 L 632 896.5 L 629 903.5 L 629 907.5 L 628 908.5 L 627 917.5 L 626 918.5 L 626 927.5 L 624.5 932 L 624 910.5 L 625 909.5 L 625 900.5 Q 627.3 899.3 626 894.5 L 627 893.5 L 627 889.5 L 630 881.5 L 630 878.5 L 633 869.5 L 635 866.5 L 635 864.5 L 637 861.5 L 637 859.5 L 648 837.5 L 655 827.5 L 656 824.5 L 674 800.5 L 711 759.5 L 723 744.5 L 734 727.5 L 746 703.5 L 754 679.5 Q 753 678 752 680.5 L 746 689.5 L 733.5 704 L 732 703.5 L 746 682.5 L 759 654.5 L 765 636.5 L 766 628.5 L 767 627.5 L 768 615.5 L 769 614.5 L 769 605.5 L 770 604.5 L 770 591.5 L 769 590.5 L 769 580.5 L 768 579.5 L 768 574.5 L 767 573.5 L 767 569.5 L 766 568.5 L 765 561.5 L 762 552.5 L 755 538.5 Q 756 537 757 539.5 L 765 554.5 L 767 556.5 L 767 558.5 L 770 563.5 L 770 565.5 L 774 574.5 L 774 577.5 L 777 585.5 L 778 598.5 L 779 599.5 L 779 615.5 L 778 618.5 L 779 618.5 Q 780.7 616.7 780 612.5 L 781 611.5 L 781 606.5 L 782 605.5 L 782 598.5 L 783 597.5 L 783 583.5 L 782 582.5 L 782 576.5 L 781 575.5 L 780 567.5 L 776 558.5 L 776 556.5 Q 768.4 539.6 755.5 528 L 733.5 511 L 715 493.5 L 703 476.5 L 696 462.5 L 693 453.5 L 693 450.5 L 692 449.5 L 692 444.5 L 691 443.5 L 691 428.5 L 692 427.5 L 693 419.5 L 692 419.5 L 690 424.5 L 680 437.5 L 671 454.5 L 670 459.5 L 667 465.5 L 666 473.5 L 665 474.5 L 665 489.5 L 666 490.5 L 667 504.5 L 666 505.5 L 665 511.5 L 660 519.5 L 646.5 534 L 639 540.5 Q 638.3 544.7 640 546.5 L 645.5 552 L 651 556.5 L 651 562.5 L 647 570.5 L 657.5 579 L 661.5 581 L 664 581 Q 665.4 584.7 659.5 583 L 658.5 584 L 652.5 585 L 650 587.5 L 649 589.5 L 654 596.5 L 654 605.5 L 652 609.5 L 652 618.5 L 657.5 625 L 662.5 627 L 688.5 627 L 689.5 626 L 697.5 626 L 698.5 625 L 703.5 625 L 704.5 624 L 713.5 623 L 714.5 622 L 717.5 622 L 729.5 618 L 741.5 612 L 751 604.5 L 755.5 599 L 755 600.5 L 753 604.5 L 740.5 617 L 733 623.5 L 730 627.5 L 726 636.5 Q 726.8 639.8 725 640.5 L 725 646.5 L 724 647.5 L 724 654.5 L 725 655.5 L 725 662.5 L 726 663.5 L 727 673.5 L 728 674.5 L 728 696.5 L 727 697.5 L 727 701.5 L 725 705.5 L 725 709.5 L 723 715.5 L 719.5 721 L 719 719.5 L 724 704.5 L 724 698.5 L 725 697.5 L 725 684.5 L 724 683.5 L 724 677.5 L 723 676.5 L 723 672.5 L 722 671.5 L 722 668.5 L 721 667.5 L 721 664.5 L 719 658.5 L 712 643.5 L 703.5 634 L 698.5 632 L 669.5 632 L 668.5 631 L 661.5 631 L 654.5 628 L 650 623.5 L 648 618.5 L 648 611.5 L 650 606.5 L 650 596.5 L 645 591.5 L 645 586.5 L 649 580.5 L 643 574.5 L 642 569.5 L 647 563.5 L 647 557.5 Q 643.9 553.7 639 553 Q 639.5 555.9 636.5 557 L 631.5 559 L 622.5 559 L 619 561.5 Q 617.2 563.7 618 568.5 Q 620 569.5 619 573.5 L 614.5 578 L 608 579 L 609 581.5 L 609 587.5 L 605.5 592 Q 598.9 592.9 596 597.5 L 595 603.5 L 594 604.5 L 594 610.5 Q 592.3 611.3 593 614.5 Q 591.3 619.3 587.5 622 L 580.5 625 L 573.5 625 L 572.5 624 L 564.5 623 L 548.5 617 L 536.5 615 L 529.5 618 L 522 625.5 L 516 636.5 L 514 642.5 L 513 650.5 L 512 651.5 L 512 664.5 L 513 665.5 L 513 670.5 L 514 671.5 L 514 674.5 L 516 680.5 L 522 692.5 Q 521 694 520 691.5 L 514 682.5 L 509 669.5 Q 509.8 666.3 508 665.5 L 508 644.5 L 509 643.5 L 510 635.5 L 514 625.5 L 514 622.5 L 516 618.5 Q 515 614.5 517 613.5 L 517 599.5 L 511 584.5 L 505 576.5 L 500 566.5 L 500 563.5 L 497 554.5 L 497 541.5 L 498 541.5 L 499 554.5 L 500 555.5 L 501 561.5 L 506 570.5 L 519.5 585 L 535.5 598 L 559.5 614 L 572.5 620 L 581.5 620 L 587 616.5 L 590 610.5 L 590 604.5 L 591 603.5 L 592 596.5 L 597.5 590 L 601.5 589 L 605 586.5 L 605 581.5 L 601.5 577 L 597 574.5 L 611.5 574 L 615 571.5 L 614 563.5 L 617.5 557 L 622.5 555 L 631.5 555 L 636 551.5 L 637 549.5 L 635 545.5 L 635 536.5 L 633 532.5 L 633 529.5 L 630 520.5 L 629 505.5 L 631 499.5 L 638 490.5 L 636.5 491 L 633.5 491 L 623.5 484 L 614.5 480 L 601 478.5 L 604.5 477 L 621.5 477 L 622.5 478 L 626.5 478 L 627.5 479 L 630.5 479 L 636.5 481 L 640 484.5 L 640.5 488 L 646 479.5 L 649 470.5 L 649 467.5 L 651 462.5 L 651 458.5 L 652 457.5 L 652 451.5 L 653 448.5 L 648.5 442 L 633.5 433 L 623 422.5 L 618 414.5 L 614.5 404 L 614 407.5 L 615 408.5 L 615 415.5 L 616 416.5 L 617 422.5 Q 620.3 430.3 626.5 435 L 632 437.5 L 626.5 442 L 617.5 446 Q 613.5 445 612.5 447 L 598.5 447 L 597.5 446 L 593.5 446 L 587.5 444 L 577.5 438 L 577 438.5 L 581.5 443 L 589 446.5 L 585.5 449 Q 581.5 448 580.5 450 L 573.5 450 L 572.5 451 L 565.5 452 L 557.5 456 L 549 463.5 L 544 472.5 L 542 482 Q 539.1 482.5 538 479.5 L 534 472.5 Q 534.8 469.3 533 468.5 L 533 460.5 L 532 459.5 L 531 451.5 Q 527.4 443.1 520.5 438 L 515.5 436 L 508.5 436 L 503.5 438 L 497 443.5 L 492 452.5 L 491 458.5 L 490 459.5 L 490 476.5 L 491 477.5 L 491 481.5 L 492 482.5 L 493 488.5 L 497 496.5 L 502.5 502 Q 506.3 501 505 504 L 497.5 502 L 483 488.5 L 476 475.5 L 474.5 470 L 474 475.5 L 475 476.5 L 476 483.5 L 478 488 Q 463.1 495.2 453 508.5 L 444 521.5 L 438 533.5 L 438 535.5 L 434 544.5 L 433 552.5 L 432 553.5 L 432 559.5 L 431 560.5 L 431 581.5 L 432 582.5 L 432 587.5 L 433 588.5 L 433 592.5 L 434 593.5 L 435 600.5 L 443 619.5 L 455 637.5 L 476.5 660 L 525.5 701 L 556 731.5 L 572 750.5 L 586 770.5 L 594 785.5 L 596 787.5 L 607 811.5 L 614 832.5 L 615 840.5 L 617 845.5 L 618 856.5 L 619 857.5 L 619 866.5 L 620 867.5 L 620 899.5 L 619 899.5 L 619 886.5 L 618 885.5 L 617 873.5 L 616 872.5 L 616 868.5 L 615 867.5 L 613 856.5 L 608 841.5 L 606 838.5 L 605 833.5 L 594 810.5 L 581 789.5 L 569 773.5 L 558 760.5 L 524.5 727 L 491.5 699 L 459.5 674 L 440 656.5 L 423 636.5 L 410 613.5 L 405 598.5 L 404 588.5 L 403 587.5 L 403 580.5 L 402 579.5 L 402 564.5 L 403 563.5 L 403 554.5 Q 405.3 553.3 404 548.5 L 405 547.5 L 406 539.5 L 409 532.5 L 409 529.5 L 418 509.5 L 423 501.5 L 422.5 501 L 420.5 503 L 404 518.5 L 398 528.5 L 395.5 537 L 395 524.5 L 396 523.5 L 396 518.5 L 397 517.5 L 398 508.5 L 399 507.5 L 399 502.5 L 400 501.5 L 400 491.5 L 399 490.5 L 398 480.5 L 396 476.5 L 396 473.5 L 394 469.5 L 394 466.5 L 391 457.5 L 391 451.5 L 390 450.5 L 390 436.5 L 391 435.5 L 391 428.5 L 392 427.5 L 393 420.5 L 397 411.5 L 397 409.5 L 403 398.5 L 416.5 383 L 423 378.5 L 421.5 378 L 406.5 387 L 396 397.5 L 387 412.5 L 384.5 422 L 384 405.5 L 385 404.5 L 385 398.5 L 386 397.5 L 387 390.5 L 394 373.5 L 403 360.5 L 411.5 352 L 432.5 339 L 443 328.5 L 441.5 328 L 433.5 334 L 433 332.5 L 437 323.5 L 443.5 317 L 447.5 316 L 459.5 323 L 462 310.5 L 468 299.5 L 474.5 293 L 489.5 284 L 495.5 283 L 496.5 282 L 501.5 282 L 502.5 281 Z M 669 422 Q 667 424 669 425 L 669 440 L 668 441 L 667 447 L 663 454 L 657 459 L 654 462 L 654 466 L 653 467 L 653 470 L 652 471 L 652 474 L 650 480 Q 645 492 635 500 L 632 509 Q 634 511 633 517 L 634 518 L 634 521 L 635 522 L 635 525 L 636 526 L 636 529 L 638 533 L 638 535 L 640 535 L 645 531 L 659 516 L 662 511 L 663 505 L 664 504 L 663 493 L 662 492 L 662 485 L 661 484 L 662 472 L 665 464 L 665 461 L 674 440 L 674 434 Q 672 433 673 430 L 669 422 Z M 727 463 L 726 465 L 731 474 L 746 495 Q 766 512 783 534 L 795 555 L 795 557 L 799 566 L 800 573 L 801 573 L 800 564 L 799 563 L 799 560 L 795 548 L 788 534 L 777 518 L 769 509 L 749 490 L 734 475 L 727 463 Z " /><path fill="rgb(18,19,19)" stroke="rgb(18,19,19)" stroke-width="1" opacity="1" d="M 509.5 445 L 514.5 445 L 520 449.5 L 522 455.5 Q 521 457 520 454.5 L 517.5 451 Q 515.3 449.2 510.5 450 L 506 453.5 L 502 463.5 L 502 471.5 Q 503.7 472.3 503 475.5 L 508 483.5 L 507.5 484 L 504 480.5 L 501 475.5 L 500 469.5 L 499 468.5 L 499 459.5 L 502 451.5 L 507.5 446 L 509.5 445 Z " /><path fill="rgb(18,19,19)" stroke="rgb(18,19,19)" stroke-width="1" opacity="1" d="M 677.5 485 Q 702.1 489.9 715 506.5 L 713.5 506 L 706.5 501 L 697.5 497 L 691.5 495 L 677.5 495 L 675 492.5 L 674 489.5 L 677.5 485 Z " /><path fill="rgb(18,19,19)" stroke="rgb(18,19,19)" stroke-width="1" opacity="1" d="M 601.5 498 L 609.5 505 L 613.5 507 L 616.5 507 L 619 508 L 619 506.5 L 623.5 501 L 623 502.5 L 622 505.5 L 622 511.5 L 625 514.5 L 624.5 515 L 616.5 515 Q 609.4 511.6 605 505.5 L 601 499.5 L 601.5 498 Z " /><path fill="rgb(18,19,19)" stroke="rgb(18,19,19)" stroke-width="1" opacity="1" d="M 679.5 509 L 680 514.5 Q 677.7 515.8 679 520.5 L 685.5 524 L 699.5 524 L 701 523.5 Q 701.8 525.8 699.5 525 L 696.5 527 L 690.5 529 L 687.5 529 L 686.5 530 L 678.5 530 L 668 523.5 L 672.5 523 L 676 520.5 L 679.5 509 Z " /><path fill="rgb(18,19,19)" stroke="rgb(18,19,19)" stroke-width="1" opacity="1" d="M 648.5 551 Q 652.5 550.5 653 553.5 L 652.5 555 L 648 551.5 L 648.5 551 Z " /><path fill="rgb(18,19,19)" stroke="rgb(18,19,19)" stroke-width="1" opacity="1" d="M 617 553 L 621 553.5 L 617.5 555 L 617 553 Z " /><path fill="rgb(18,19,19)" stroke="rgb(18,19,19)" stroke-width="1" opacity="1" d="M 604.5 702 L 612.5 702 L 615.5 703 Q 621.7 705.3 625 710.5 L 627.5 716 L 630 711.5 L 637.5 704 L 639.5 704 L 642.5 702 L 651.5 702 L 656.5 704 L 663 710.5 L 666 718.5 L 666 725.5 L 661 736.5 L 652.5 745 Q 641.9 751.4 634 760.5 L 628 769.5 L 627.5 772 Q 620.9 758.6 609.5 750 Q 599.7 744.3 593 735.5 L 589 725.5 L 589 718.5 L 591 712.5 L 597.5 705 L 604.5 702 Z " /><path fill="rgb(18,19,19)" stroke="rgb(18,19,19)" stroke-width="1" opacity="1" d="M 1068.5 772 L 1080.5 772 Q 1081.3 773.8 1084.5 773 Q 1090 775 1093 779.5 Q 1094.8 781.7 1094 786.5 L 1091.5 788 L 1084.5 783 Q 1081.3 783.8 1080.5 782 L 1069.5 782 L 1068.5 783 L 1065.5 783 L 1064.5 784 L 1061.5 784 L 1055.5 786 L 1039.5 794 L 1030.5 800 Q 1005.3 818.3 985 841.5 L 956 876.5 L 920 924.5 L 916 931.5 L 878 984.5 L 864 1006.5 L 861 1009.5 L 836 1048.5 L 832 1056.5 L 838.5 1060 L 843.5 1060 L 855.5 1056 Q 857 1057 854.5 1058 L 843.5 1063 Q 840.3 1062.3 839.5 1064 L 830.5 1064 L 824 1061 L 821 1054.5 L 821 1041.5 L 822 1040.5 L 822 1036.5 L 823 1035.5 L 824 1028.5 L 828 1016.5 L 830 1013.5 L 831 1008.5 L 837 995.5 L 837 993.5 L 844 979.5 L 847 970.5 L 852 961.5 L 852 959.5 L 857 950.5 L 857 948.5 L 863 937.5 L 863 935.5 L 868 926.5 L 868 924.5 L 874 913.5 L 874 911.5 L 877 906.5 L 877 904.5 L 880 899.5 L 880 897.5 L 883 892.5 L 887 880.5 L 892 870.5 L 895 859.5 L 899 850.5 L 899 847.5 L 902 838.5 L 902 834.5 L 903 833.5 L 903 827.5 L 904 826.5 L 904 809.5 L 903 808.5 L 903 805.5 L 901 799.5 L 895.5 792 L 891.5 789 L 883.5 786 Q 880.3 786.8 879.5 785 L 869.5 785 L 868.5 786 L 862.5 786 L 861.5 787 L 858.5 787 L 857.5 788 L 854.5 788 L 848.5 790 L 831.5 798 L 810.5 812 L 793 827.5 L 771 853.5 L 757 877.5 L 757 879.5 L 752 890.5 L 751 898.5 L 750 899.5 L 750 916.5 L 754 926.5 L 759.5 932 L 766.5 935 L 776.5 936 L 777.5 935 L 785.5 934 L 794.5 930 L 803.5 924 L 814 913.5 L 821 903.5 L 825 895.5 L 827 887.5 L 829.5 885 Q 832.8 885.8 832 890.5 L 831 891.5 L 831 894.5 L 829 900.5 L 826 906.5 L 822 912.5 L 811.5 924 Q 803.1 932.1 791.5 937 L 782.5 940 L 767.5 941 L 766.5 940 L 759.5 939 L 753.5 936 L 746 929.5 L 740 919.5 L 740 916.5 L 738 911.5 L 738 894.5 L 739 893.5 L 739 889.5 L 740 888.5 L 740 885.5 L 743 876.5 L 752 858.5 L 767 837.5 L 785.5 819 L 808.5 802 L 818.5 797 L 820.5 795 L 835.5 788 L 837.5 788 L 840.5 786 L 849.5 783 L 857.5 782 L 858.5 781 L 862.5 781 L 863.5 780 L 881.5 780 Q 882.8 782.3 887.5 781 L 897.5 785 L 910 796.5 L 914 804.5 L 916 810.5 L 916 814.5 L 917 815.5 L 917 837.5 L 916 838.5 L 916 844.5 L 915 845.5 L 915 849.5 L 912 857.5 L 912 860.5 L 907 875.5 L 905 878.5 L 904 883.5 L 898 896.5 L 898 898.5 L 885 925.5 L 885 927.5 L 877 942.5 L 877 944.5 L 869 959.5 L 869 961.5 L 861 976.5 L 861 978.5 L 857 985.5 L 857 987.5 L 852 996.5 L 852 998.5 L 845 1012.5 L 845 1014.5 L 839 1027.5 L 837 1034.5 L 838 1034.5 L 841 1028.5 L 855 1008.5 L 856 1005.5 Q 866.7 992.7 875 977.5 L 878 974.5 L 888 958.5 L 940 886.5 L 978 839.5 L 1013.5 803 L 1028.5 791 L 1040.5 783 L 1054.5 776 L 1063.5 773 L 1067.5 773 L 1068.5 772 Z " /><path fill="rgb(253,253,253)" stroke="rgb(253,253,253)" stroke-width="1" opacity="1" d="M 0 0 L 1254 0 L 1254 1254 L 0 1254 L 0 0 Z M 605 79 L 604 80 L 589 80 L 588 81 L 578 81 L 577 82 L 561 83 L 560 84 L 547 85 L 546 86 L 541 86 L 535 88 L 531 88 L 530 89 L 526 89 L 525 90 L 521 90 L 520 91 L 516 91 L 507 94 L 504 94 L 503 95 L 500 95 L 499 96 L 496 96 L 495 97 L 492 97 L 491 98 L 488 98 L 484 100 L 481 100 L 474 103 L 471 103 L 456 108 L 453 110 L 445 112 L 432 118 L 430 118 L 381 141 L 379 143 L 374 145 L 349 160 L 315 184 L 278 215 L 238 256 L 205 297 L 189 320 L 188 323 L 176 341 L 165 362 L 163 364 L 147 397 L 147 399 L 144 404 L 143 409 L 138 419 L 137 424 L 135 427 L 134 432 L 132 435 L 128 447 L 128 450 L 123 463 L 123 466 L 119 478 L 119 481 L 115 493 L 115 497 L 113 502 L 112 510 L 111 511 L 111 515 L 110 516 L 109 527 L 108 528 L 108 533 L 107 534 L 106 547 L 105 548 L 104 565 L 103 566 L 103 576 L 102 577 L 102 593 L 101 594 L 101 631 L 102 632 L 102 651 L 103 652 L 103 664 L 104 665 L 104 673 L 105 674 L 105 682 L 106 683 L 106 689 L 107 690 L 107 696 L 108 697 L 108 702 L 110 708 L 110 713 L 111 714 L 113 728 L 115 733 L 115 737 L 118 746 L 118 749 L 119 750 L 119 753 L 121 757 L 122 764 L 125 771 L 125 774 L 128 781 L 128 784 L 132 793 L 135 804 L 137 807 L 142 822 L 145 827 L 145 829 L 148 834 L 148 836 L 153 845 L 153 847 L 175 888 L 198 923 L 221 953 L 240 975 L 276 1010 L 321 1047 L 364 1076 L 390 1090 L 392 1092 L 414 1103 L 416 1103 L 425 1108 L 427 1108 L 432 1111 L 434 1111 L 449 1118 L 454 1119 L 457 1121 L 487 1131 L 497 1133 L 501 1135 L 512 1137 L 513 1138 L 517 1138 L 526 1141 L 535 1142 L 536 1143 L 541 1143 L 547 1145 L 552 1145 L 553 1146 L 560 1146 L 561 1147 L 567 1147 L 568 1148 L 575 1148 L 576 1149 L 585 1149 L 586 1150 L 598 1150 L 599 1151 L 655 1151 L 656 1150 L 669 1150 L 670 1149 L 680 1149 L 681 1148 L 688 1148 L 689 1147 L 697 1147 L 698 1146 L 716 1144 L 722 1142 L 726 1142 L 727 1141 L 731 1141 L 732 1140 L 736 1140 L 745 1137 L 749 1137 L 753 1135 L 764 1133 L 775 1129 L 778 1129 L 805 1120 L 828 1110 L 830 1110 L 835 1107 L 837 1107 L 850 1100 L 852 1100 L 877 1087 L 879 1085 L 899 1074 L 946 1041 L 980 1012 L 1016 975 L 1049 934 L 1066 909 L 1070 901 L 1080 886 L 1099 850 L 1099 848 L 1105 837 L 1108 828 L 1111 823 L 1111 821 L 1114 816 L 1121 795 L 1123 792 L 1123 789 L 1129 773 L 1129 770 L 1134 755 L 1134 752 L 1136 748 L 1137 741 L 1138 740 L 1138 736 L 1140 731 L 1140 727 L 1141 726 L 1141 722 L 1142 721 L 1142 717 L 1143 716 L 1143 711 L 1145 705 L 1145 700 L 1146 699 L 1146 694 L 1147 693 L 1148 678 L 1149 677 L 1149 669 L 1150 668 L 1150 658 L 1151 657 L 1151 643 L 1152 642 L 1152 591 L 1151 590 L 1150 564 L 1149 563 L 1149 555 L 1148 554 L 1148 547 L 1147 546 L 1146 534 L 1145 533 L 1145 527 L 1144 526 L 1142 512 L 1141 511 L 1141 507 L 1139 502 L 1139 498 L 1136 489 L 1136 486 L 1135 485 L 1135 482 L 1129 464 L 1129 461 L 1125 451 L 1125 448 L 1119 430 L 1117 427 L 1115 419 L 1113 416 L 1112 411 L 1106 398 L 1106 396 L 1103 391 L 1103 389 L 1100 384 L 1100 382 L 1085 352 L 1083 350 L 1080 343 L 1078 341 L 1070 326 L 1037 279 L 998 234 L 955 193 L 917 164 L 883 143 L 872 138 L 870 136 L 843 123 L 841 123 L 819 113 L 814 112 L 811 110 L 787 102 L 784 102 L 773 98 L 770 98 L 766 96 L 751 93 L 750 92 L 746 92 L 745 91 L 741 91 L 736 89 L 732 89 L 731 88 L 720 87 L 719 86 L 714 86 L 713 85 L 700 84 L 699 83 L 692 83 L 691 82 L 683 82 L 682 81 L 672 81 L 671 80 L 655 80 L 654 79 L 605 79 Z " /><path fill="rgb(253,253,253)" stroke="rgb(253,253,253)" stroke-width="1" opacity="1" d="M 611.5 86 L 640.5 86 L 641.5 87 L 659.5 87 L 660.5 88 L 672.5 88 L 673.5 89 L 682.5 89 L 683.5 90 L 690.5 90 L 691.5 91 L 698.5 91 L 699.5 92 L 705.5 92 L 706.5 93 L 711.5 93 L 712.5 94 L 723.5 95 L 724.5 96 L 738.5 98 L 747.5 101 L 751.5 101 L 752.5 102 L 763.5 104 L 767.5 106 L 770.5 106 L 774.5 108 L 777.5 108 L 781.5 110 L 784.5 110 L 802.5 116 L 805.5 118 L 813.5 120 L 824.5 125 L 826.5 125 L 840.5 132 L 842.5 132 L 881.5 152 L 901.5 164 L 926.5 181 Q 970.1 212.9 1006 252.5 L 1036 288.5 L 1038 292.5 L 1047 303.5 L 1069 337.5 L 1076 351.5 L 1082 360.5 L 1095 386.5 L 1095 388.5 L 1101 400.5 L 1101 402.5 L 1109 420.5 L 1111 428.5 L 1113 431.5 L 1122 458.5 L 1122 461.5 L 1126 471.5 L 1127 478.5 L 1129 482.5 L 1129 485.5 L 1130 486.5 L 1130 489.5 L 1131 490.5 L 1131 493.5 L 1134 502.5 L 1134 506.5 L 1135 507.5 L 1135 511.5 L 1136 512.5 L 1136 516.5 L 1137 517.5 L 1137 521.5 L 1139 527.5 L 1140 538.5 L 1141 539.5 L 1142 553.5 L 1143 554.5 L 1143 562.5 L 1144 563.5 L 1144 574.5 L 1145 575.5 L 1145 589.5 L 1146 590.5 L 1146 644.5 L 1145 645.5 L 1144 669.5 L 1143 670.5 L 1143 677.5 L 1142 678.5 L 1142 686.5 L 1141 687.5 L 1140 700.5 L 1139 701.5 L 1138 712.5 L 1137 713.5 L 1135 727.5 L 1133 732.5 L 1133 736.5 L 1132 737.5 L 1132 740.5 L 1131 741.5 L 1128 756.5 L 1126 760.5 L 1125 767.5 L 1115 797.5 L 1113 800.5 L 1113 802.5 L 1111 805.5 L 1110 810.5 L 1105 820.5 L 1105 822.5 L 1096 840.5 L 1096 842.5 L 1071 889.5 L 1046 927.5 Q 1027.5 952.5 1007 975.5 L 972.5 1010 L 941.5 1036 L 897.5 1067 L 877.5 1079 L 870.5 1082 L 868.5 1084 L 838.5 1099 L 836.5 1099 L 827.5 1104 L 825.5 1104 L 812.5 1110 L 764.5 1126 L 761.5 1126 L 760.5 1127 L 757.5 1127 L 749.5 1130 L 746.5 1130 L 741.5 1132 L 737.5 1132 L 732.5 1134 L 718.5 1136 L 717.5 1137 L 712.5 1137 L 711.5 1138 Q 706.8 1136.8 705.5 1139 L 699.5 1139 L 698.5 1140 L 692.5 1140 L 691.5 1141 L 672.5 1142 L 671.5 1143 L 659.5 1143 L 658.5 1144 L 628.5 1144 Q 627.5 1146 623.5 1145 L 622.5 1144 L 597.5 1144 L 596.5 1143 L 584.5 1143 L 583.5 1142 L 574.5 1142 L 573.5 1141 L 558.5 1140 L 557.5 1139 L 552.5 1139 L 551.5 1138 L 546.5 1138 L 540.5 1136 L 530.5 1135 L 525.5 1133 L 521.5 1133 L 520.5 1132 L 517.5 1132 L 516.5 1131 L 501.5 1128 L 490.5 1124 L 487.5 1124 L 457.5 1114 L 454.5 1112 L 452.5 1112 L 449.5 1110 L 447.5 1110 L 444.5 1108 L 432.5 1104 L 387.5 1082 L 385.5 1080 L 380.5 1078 L 360.5 1066 L 336.5 1050 L 297.5 1020 Q 277.9 1003.6 260.5 985 L 259 985 L 259 983.5 L 243 967.5 L 217 936.5 L 190 898.5 L 172 868.5 L 156 836.5 L 156 834.5 L 152 827.5 L 152 825.5 L 149 820.5 L 149 818.5 L 143 805.5 L 141 797.5 L 139 794.5 L 131 770.5 L 129 760.5 L 127 756.5 L 127 753.5 L 126 752.5 L 126 749.5 L 125 748.5 L 125 745.5 L 124 744.5 L 124 741.5 L 121 732.5 L 121 728.5 L 119 723.5 L 118 713.5 L 117 712.5 L 117 708.5 L 115 702.5 L 115 697.5 L 114 696.5 L 113 682.5 L 112 681.5 L 112 674.5 L 111 673.5 L 111 664.5 L 110 663.5 L 110 653.5 L 109 652.5 L 109 637.5 L 108 636.5 L 108 594.5 L 109 593.5 L 109 577.5 L 110 576.5 L 110 565.5 L 111 564.5 L 112 547.5 L 113 546.5 L 114 533.5 L 115 532.5 L 115 527.5 L 116 526.5 L 116 521.5 L 117 520.5 L 117 516.5 L 119 510.5 L 120 501.5 L 121 500.5 L 121 497.5 L 122 496.5 L 122 493.5 L 123 492.5 L 123 489.5 L 124 488.5 L 127 473.5 L 131 462.5 L 131 459.5 L 140 432.5 L 142 429.5 L 143 424.5 L 145 421.5 L 149 409.5 L 152 404.5 L 152 402.5 L 158 391.5 L 158 389.5 L 170 365.5 L 172 363.5 L 186 337.5 L 214 296.5 L 244 259.5 L 283.5 219 L 315.5 192 L 350.5 167 L 380.5 149 L 430.5 125 L 445.5 120 L 448.5 118 L 456.5 116 L 459.5 114 L 465.5 112 L 468.5 112 L 481.5 107 L 484.5 107 L 491.5 104 L 494.5 104 L 499.5 102 L 503.5 102 L 512.5 99 L 516.5 99 L 521.5 97 L 525.5 97 L 526.5 96 L 530.5 96 L 536.5 94 L 541.5 94 L 547.5 92 L 559.5 91 L 560.5 90 L 567.5 90 L 568.5 89 L 577.5 89 L 578.5 88 L 590.5 88 L 591.5 87 L 610.5 87 L 611.5 86 Z M 455 176 L 443 180 L 432 189 L 417 190 L 416 191 L 411 191 L 410 192 L 405 192 L 399 194 L 395 194 L 391 196 L 380 198 L 365 203 L 357 207 L 355 207 L 329 220 L 310 233 L 295 247 L 293 247 L 293 249 L 285 257 L 276 270 L 270 282 L 268 288 L 268 291 L 267 292 L 267 296 L 266 297 L 266 309 Q 268 309 267 314 L 272 324 L 281 331 L 289 334 L 304 334 Q 304 332 308 333 L 319 328 L 329 320 Q 330 316 328 315 L 325 316 L 314 325 L 303 329 L 293 329 L 285 325 L 280 319 L 279 313 L 278 312 L 278 303 L 279 302 L 279 298 L 280 297 L 280 294 L 282 288 L 292 269 L 308 249 L 331 229 L 350 217 L 362 211 L 364 211 L 372 207 L 390 201 L 397 200 L 398 199 L 402 199 L 407 197 L 419 196 L 420 195 L 425 196 L 411 212 L 393 239 L 381 261 L 379 263 L 376 270 L 374 272 L 362 296 L 360 298 L 345 329 L 343 331 L 333 352 L 331 354 L 331 356 L 329 358 L 322 373 L 320 375 L 307 400 L 281 441 L 266 460 Q 251 477 232 489 L 215 496 Q 211 495 211 497 L 204 497 L 203 498 L 192 497 L 186 495 L 179 491 L 170 482 L 166 470 L 166 455 L 168 450 L 168 447 L 174 434 L 179 427 Q 186 418 196 412 L 209 406 L 218 405 L 219 404 L 224 404 L 224 403 L 212 403 L 211 404 L 207 404 L 198 407 L 192 410 L 181 418 Q 172 426 166 437 L 161 449 L 160 457 L 159 458 L 159 473 L 160 474 L 160 477 L 162 483 L 167 492 L 176 499 L 184 503 L 190 505 L 194 505 L 195 506 L 213 506 L 214 505 L 219 505 L 227 502 L 230 502 L 254 490 L 270 478 L 297 450 L 319 419 L 345 371 L 345 369 L 371 316 L 371 314 L 402 251 L 404 249 L 417 224 L 434 199 L 440 193 L 449 193 L 450 192 L 455 192 L 460 190 L 464 185 L 464 181 L 461 177 L 455 176 Z M 503 281 L 502 282 L 497 282 L 496 283 L 490 284 L 475 293 L 468 300 L 462 311 L 460 323 L 448 316 L 444 317 L 437 324 L 433 333 L 434 334 L 442 328 L 443 329 L 433 339 L 412 352 L 403 361 L 394 374 L 387 391 L 386 398 L 385 399 L 385 405 L 384 406 L 385 422 L 387 413 L 396 398 L 407 387 L 422 378 L 423 379 L 417 383 L 403 399 L 397 410 L 397 412 L 393 421 L 392 428 L 391 429 L 391 436 L 390 437 L 390 451 L 391 452 L 391 458 L 394 467 L 394 470 L 396 474 L 396 477 L 398 481 L 399 491 L 400 492 L 400 502 L 399 503 L 399 508 L 398 509 L 397 518 L 396 519 L 396 524 L 395 525 L 396 537 L 398 529 L 404 519 L 421 503 L 423 501 L 423 502 L 418 510 L 409 530 L 409 533 L 406 540 L 405 548 L 404 549 Q 405 553 403 555 L 403 564 L 402 565 L 402 580 L 403 581 L 403 588 L 404 589 L 405 599 L 410 614 L 423 637 L 440 657 L 460 674 L 492 699 L 525 727 L 558 761 L 569 774 L 581 790 L 594 811 L 605 834 L 606 839 L 608 842 L 613 857 L 615 868 L 616 869 L 616 873 L 617 874 L 618 886 L 619 887 L 619 900 L 620 900 L 620 868 L 619 867 L 619 858 L 618 857 L 617 846 L 615 841 L 614 833 L 607 812 L 596 788 L 594 786 L 586 771 L 572 751 L 556 732 L 526 701 L 477 660 L 455 638 L 443 620 L 435 601 L 434 594 L 433 593 L 433 589 L 432 588 L 432 583 L 431 582 L 431 561 L 432 560 L 432 554 L 433 553 L 434 545 L 438 536 L 438 534 L 444 522 L 453 509 Q 463 495 478 488 L 476 484 L 475 477 L 474 476 L 475 470 L 476 476 L 483 489 L 498 502 L 505 504 Q 506 501 503 502 L 497 497 L 493 489 L 492 483 L 491 482 L 491 478 L 490 477 L 490 460 L 491 459 L 492 453 L 497 444 L 504 438 L 509 436 L 516 436 L 521 438 Q 527 443 531 452 L 532 460 L 533 461 L 533 469 Q 535 469 534 473 L 538 480 Q 539 483 542 482 L 544 473 L 549 464 L 558 456 L 566 452 L 573 451 L 574 450 L 581 450 Q 582 448 586 449 L 589 447 L 582 443 L 577 439 L 578 438 L 588 444 L 594 446 L 598 446 L 599 447 L 613 447 Q 613 445 618 446 L 627 442 L 632 438 L 627 435 Q 620 430 617 423 L 616 417 L 615 416 L 615 409 L 614 408 L 615 404 L 618 415 L 623 423 L 634 433 L 649 442 L 653 449 L 651 463 L 650 464 L 649 471 L 646 480 L 642 487 L 631 500 L 629 506 L 630 521 L 633 530 L 633 533 L 635 537 L 635 546 L 637 550 L 636 552 L 632 555 L 623 555 L 618 557 L 614 564 L 615 572 L 612 574 L 597 575 L 602 577 L 605 582 L 605 587 L 602 589 L 598 590 L 592 597 L 591 604 L 590 605 L 590 611 L 587 617 L 582 620 L 573 620 L 560 614 L 536 598 L 520 585 L 506 571 L 501 562 L 500 556 L 499 555 L 498 542 L 497 542 L 497 555 L 500 564 L 500 567 L 505 577 L 511 585 L 517 600 L 517 614 Q 515 615 516 619 L 514 623 L 514 626 L 510 636 L 509 644 L 508 645 L 508 666 Q 510 666 509 670 L 514 683 L 520 692 Q 521 694 522 693 L 516 681 L 514 675 L 514 672 L 513 671 L 513 666 L 512 665 L 512 652 L 513 651 L 514 643 L 516 637 L 522 626 L 530 618 L 537 615 L 549 617 L 565 623 L 573 624 L 574 625 L 581 625 L 588 622 Q 591 619 593 615 Q 592 611 594 611 L 594 605 L 595 604 L 596 598 Q 599 593 606 592 L 609 588 L 609 582 L 608 579 L 615 578 L 619 574 Q 620 569 618 569 Q 617 564 619 562 L 623 559 L 632 559 L 637 557 Q 640 556 639 553 Q 644 554 647 558 L 647 564 L 642 570 L 643 575 L 649 581 L 645 587 L 645 592 L 650 597 L 650 607 L 648 612 L 648 619 L 650 624 L 655 628 L 662 631 L 669 631 L 670 632 L 699 632 L 704 634 L 712 644 L 719 659 L 721 665 L 721 668 L 722 669 L 722 672 L 723 673 L 723 677 L 724 678 L 724 684 L 725 685 L 725 698 L 724 699 L 724 705 L 719 720 L 720 721 L 723 716 L 725 710 L 725 706 L 727 702 L 727 698 L 728 697 L 728 675 L 727 674 L 726 664 L 725 663 L 725 656 L 724 655 L 724 648 L 725 647 L 725 641 Q 727 640 726 637 L 730 628 L 733 624 L 741 617 L 755 602 L 755 600 L 751 605 L 742 612 L 730 618 L 718 622 L 715 622 L 714 623 L 705 624 L 704 625 L 699 625 L 698 626 L 690 626 L 689 627 L 663 627 L 658 625 L 652 619 L 652 610 L 654 606 L 654 597 L 649 590 L 650 588 L 653 585 L 659 584 L 660 583 Q 665 585 664 581 L 662 581 L 658 579 L 647 571 L 651 563 L 651 557 L 646 552 L 640 547 Q 638 545 639 541 L 647 534 L 660 520 L 665 512 L 666 506 L 667 505 L 666 491 L 665 490 L 665 475 L 666 474 L 667 466 L 670 460 L 671 455 L 680 438 L 690 425 L 693 418 L 694 418 L 692 424 L 692 428 L 691 429 L 691 444 L 692 445 L 692 450 L 693 451 L 693 454 L 696 463 L 703 477 L 715 494 L 734 511 L 756 528 Q 768 540 776 557 L 776 559 L 780 568 L 781 576 L 782 577 L 782 583 L 783 584 L 783 598 L 782 599 L 782 606 L 781 607 L 781 612 L 780 613 Q 781 617 779 619 L 778 619 L 779 616 L 779 600 L 778 599 L 777 586 L 774 578 L 774 575 L 770 566 L 770 564 L 767 559 L 767 557 L 765 555 L 757 540 Q 756 537 755 539 L 762 553 L 765 562 L 766 569 L 767 570 L 767 574 L 768 575 L 768 580 L 769 581 L 769 591 L 770 592 L 770 605 L 769 606 L 769 615 L 768 616 L 767 628 L 766 629 L 765 637 L 759 655 L 746 683 L 732 704 L 734 704 L 746 690 L 754 678 L 755 678 L 748 699 L 746 702 L 746 704 L 734 728 L 723 745 L 711 760 L 674 801 L 656 825 L 655 828 L 648 838 L 637 860 L 637 862 L 635 865 L 635 867 L 633 870 L 630 879 L 630 882 L 627 890 L 627 894 L 626 895 Q 627 899 625 901 L 625 910 L 624 911 L 625 932 L 626 928 L 626 919 L 627 918 L 628 909 L 629 908 L 629 904 L 632 897 L 633 891 L 637 883 L 637 881 L 645 865 L 655 849 L 675 824 L 694 805 L 733 773 L 764 752 L 767 749 L 779 742 L 794 731 L 819 715 L 834 703 L 835 704 L 808 736 Q 783 760 761 787 L 747 806 L 736 826 L 737 827 L 749 810 L 781 778 L 827 737 L 829 734 L 833 731 L 865 695 L 881 673 L 885 665 L 889 660 L 892 653 L 894 651 L 903 632 L 903 630 L 907 622 L 913 604 L 914 596 L 916 591 L 916 587 L 917 586 L 917 581 L 918 580 L 918 574 L 919 573 L 919 561 L 920 560 L 920 543 L 919 542 L 919 530 L 918 529 L 918 523 L 916 551 L 915 552 L 915 557 L 913 563 L 913 567 L 912 568 L 911 575 L 907 587 L 901 600 L 901 602 L 893 618 L 882 636 L 866 657 L 853 671 L 839 684 L 817 702 L 765 740 L 763 741 L 809 700 L 849 660 L 871 634 L 881 620 L 890 605 L 902 579 L 907 564 L 908 557 L 909 556 L 910 547 L 911 546 L 911 541 L 912 540 L 912 532 L 913 531 L 913 504 L 912 503 L 912 495 L 911 494 L 911 489 L 910 488 L 910 484 L 909 483 L 909 479 L 907 474 L 907 471 L 896 444 L 882 423 L 860 401 L 848 393 L 830 384 L 809 377 L 802 376 L 801 375 L 791 374 L 790 373 L 784 373 L 783 372 L 772 372 L 771 371 L 756 371 L 755 372 L 744 372 L 738 374 L 734 374 L 722 378 L 712 383 L 705 388 L 696 398 L 691 408 L 690 415 L 689 416 L 689 422 L 682 430 Q 681 432 680 431 L 681 425 L 682 424 L 682 417 L 683 416 L 683 407 L 682 406 L 681 397 L 676 385 L 671 378 L 660 369 L 670 366 L 675 363 L 682 355 L 685 348 L 685 342 L 686 341 Q 687 338 685 337 L 682 345 L 676 350 L 671 352 L 667 352 L 666 353 L 653 352 L 637 346 L 620 334 L 600 314 L 592 308 L 578 301 L 572 299 L 569 299 L 568 298 L 563 298 L 562 297 L 545 297 L 544 298 Q 540 299 540 297 L 517 297 Q 516 299 513 298 L 497 305 L 493 309 L 491 309 L 496 301 L 504 294 L 512 290 L 519 289 L 520 288 L 531 288 L 532 289 L 534 289 L 529 285 L 520 282 Q 515 283 515 281 L 503 281 Z M 510 445 L 508 446 L 502 452 L 499 460 L 499 469 L 500 470 L 501 476 L 504 481 L 507 483 L 507 483 L 503 476 Q 504 472 502 472 L 502 464 L 506 454 L 511 450 Q 515 449 518 451 L 520 455 Q 521 457 522 456 L 520 450 L 515 445 L 510 445 Z M 605 477 L 601 479 L 615 480 L 624 484 L 634 491 L 637 491 L 640 488 L 640 485 L 637 481 L 631 479 L 628 479 L 627 478 Q 622 479 622 477 L 605 477 Z M 678 485 L 674 490 L 675 493 L 678 495 L 692 495 L 698 497 L 707 501 L 713 506 L 714 506 Q 701 490 678 485 Z M 602 498 L 601 500 L 605 506 Q 609 512 617 515 L 625 515 L 625 515 L 622 512 L 622 506 L 623 505 L 623 502 L 619 507 L 619 508 L 617 507 L 614 507 L 610 505 L 602 498 Z M 680 509 L 676 521 L 673 523 L 668 524 L 679 530 L 687 530 L 688 529 L 691 529 L 697 527 L 700 525 Q 702 526 701 524 L 700 524 L 686 524 L 679 521 Q 678 516 680 515 L 680 509 Z M 649 551 L 648 552 L 653 555 L 653 554 Q 652 550 649 551 Z M 617 553 L 618 555 L 621 554 L 617 553 Z M 605 702 L 598 705 L 591 713 L 589 719 L 589 726 L 593 736 Q 600 744 610 750 Q 621 759 628 772 L 628 770 L 634 761 Q 642 751 653 745 L 661 737 L 666 726 L 666 719 L 663 711 L 657 704 L 652 702 L 643 702 L 640 704 L 638 704 L 630 712 L 628 716 L 625 711 Q 622 705 616 703 L 613 702 L 605 702 Z M 1069 772 L 1068 773 L 1064 773 L 1055 776 L 1041 783 L 1029 791 L 1014 803 L 978 840 L 940 887 L 888 959 L 878 975 L 875 978 Q 867 993 856 1006 L 855 1009 L 841 1029 L 838 1035 Q 837 1037 836 1036 L 845 1015 L 845 1013 L 852 999 L 852 997 L 861 979 L 861 977 L 869 962 L 869 960 L 877 945 L 877 943 L 885 928 L 885 926 L 898 899 L 898 897 L 904 884 L 905 879 L 907 876 L 912 861 L 912 858 L 915 850 L 915 846 L 916 845 L 916 839 L 917 838 L 917 816 L 916 815 L 916 811 L 914 805 L 910 797 L 898 785 L 888 781 Q 883 782 882 780 L 864 780 L 863 781 L 859 781 L 858 782 L 850 783 L 841 786 L 838 788 L 836 788 L 821 795 L 819 797 L 809 802 L 786 819 L 767 838 L 752 859 L 743 877 L 740 886 L 740 889 L 739 890 L 739 894 L 738 895 L 738 912 L 740 917 L 740 920 L 746 930 L 754 936 L 760 939 L 767 940 L 768 941 L 783 940 L 792 937 Q 803 932 812 924 L 822 913 L 826 907 L 829 901 L 831 895 L 831 892 L 832 891 Q 833 886 830 885 L 827 888 L 825 896 L 821 904 L 814 914 L 804 924 L 795 930 L 786 934 L 778 935 L 777 936 L 767 935 L 760 932 L 754 927 L 750 917 L 750 900 L 751 899 L 752 891 L 757 880 L 757 878 L 771 854 L 793 828 L 811 812 L 832 798 L 849 790 L 855 788 L 858 788 L 859 787 L 862 787 L 863 786 L 869 786 L 870 785 L 880 785 Q 880 787 884 786 L 892 789 L 896 792 L 901 800 L 903 806 L 903 809 L 904 810 L 904 827 L 903 828 L 903 834 L 902 835 L 902 839 L 899 848 L 899 851 L 895 860 L 892 871 L 887 881 L 883 893 L 880 898 L 880 900 L 877 905 L 877 907 L 874 912 L 874 914 L 868 925 L 868 927 L 863 936 L 863 938 L 857 949 L 857 951 L 852 960 L 852 962 L 847 971 L 844 980 L 837 994 L 837 996 L 831 1009 L 830 1014 L 828 1017 L 824 1029 L 823 1036 L 822 1037 L 822 1041 L 821 1042 L 821 1055 L 824 1061 L 831 1064 L 840 1064 Q 840 1062 844 1063 L 855 1058 Q 857 1057 856 1056 L 844 1060 L 839 1060 L 832 1057 L 836 1049 L 861 1010 L 864 1007 L 878 985 L 916 932 L 920 925 L 956 877 L 985 842 Q 1005 818 1031 800 L 1040 794 L 1056 786 L 1062 784 L 1065 784 L 1066 783 L 1069 783 L 1070 782 L 1081 782 Q 1081 784 1085 783 L 1092 788 L 1094 787 Q 1095 782 1093 780 Q 1090 775 1085 773 Q 1081 774 1081 772 L 1069 772 Z " /><path fill="rgb(253,253,253)" stroke="rgb(253,253,253)" stroke-width="1" opacity="1" d="M 452.5 184 L 455 184.5 L 447.5 187 L 447.5 186 L 452.5 184 Z " /><path fill="rgb(253,253,253)" stroke="rgb(253,253,253)" stroke-width="1" opacity="1" d="M 668.5 422 L 673 429.5 Q 672.3 432.7 674 433.5 L 674 439.5 L 665 460.5 L 665 463.5 L 662 471.5 L 661 483.5 L 662 484.5 L 662 491.5 L 663 492.5 L 664 503.5 L 663 504.5 L 662 510.5 L 659 515.5 L 644.5 531 L 639.5 535 L 638 535 L 638 532.5 L 636 528.5 L 636 525.5 L 635 524.5 L 635 521.5 L 634 520.5 L 634 517.5 L 633 516.5 Q 634 511 632 508.5 L 635 499.5 Q 645.1 492.1 650 479.5 L 652 473.5 L 652 470.5 L 653 469.5 L 653 466.5 L 654 465.5 L 654 461.5 L 656.5 459 L 663 453.5 L 667 446.5 L 668 440.5 L 669 439.5 L 669 424.5 Q 667.3 423.8 668.5 422 Z " /><path fill="rgb(253,253,253)" stroke="rgb(253,253,253)" stroke-width="1" opacity="1" d="M 725.5 462 L 734 474.5 L 748.5 490 L 769 508.5 L 777 517.5 L 788 533.5 L 795 547.5 L 799 559.5 L 799 562.5 L 800 563.5 L 801 572.5 L 800 572.5 L 799 565.5 L 795 556.5 L 795 554.5 L 783 533.5 Q 766.2 512.3 746 494.5 L 731 473.5 L 725 462.5 L 725.5 462 Z " /></svg>